<svg 
 xmlns="http://www.w3.org/2000/svg"
 xmlns:xlink="http://www.w3.org/1999/xlink"
 width="158px" height="83px">
<path fill-rule="evenodd"  fill="rgb(0, 76, 255)"
 d="M154.688,23.747 C154.688,23.747 151.650,24.045 150.511,21.859 C149.372,19.674 149.182,16.000 147.664,14.609 C146.145,13.219 143.488,13.715 143.677,18.483 C144.037,27.510 161.222,41.916 157.116,56.341 C153.961,67.427 143.033,72.012 132.666,71.124 C141.154,69.596 148.305,65.154 150.592,56.023 C154.113,41.971 137.397,30.820 138.078,19.674 C138.303,15.979 139.389,13.938 140.709,12.849 C143.383,10.641 148.359,11.400 150.683,13.563 C151.559,10.519 156.966,10.835 156.966,10.835 C156.966,10.835 155.163,12.225 154.688,14.510 C154.213,16.794 154.688,23.747 154.688,23.747 ZM133.697,17.524 C133.387,18.062 133.020,18.917 132.648,19.905 L128.534,48.096 C129.188,48.894 129.927,49.558 130.632,49.681 C132.594,50.025 133.526,48.112 134.947,44.287 C136.370,40.463 137.007,38.502 138.282,38.011 C139.557,37.521 141.518,37.668 141.518,37.668 C141.518,37.668 139.164,42.473 139.164,46.053 C139.164,49.632 139.833,50.748 139.833,50.748 C139.833,50.748 135.829,51.152 131.907,51.447 C127.984,51.741 118.569,53.457 118.569,53.457 C118.569,53.457 119.061,52.476 120.433,49.779 C121.162,48.347 121.877,46.971 122.388,45.994 L126.152,20.392 C126.100,19.998 126.014,19.619 125.883,19.259 C125.608,18.499 125.117,18.031 124.623,17.294 L124.606,16.261 C124.628,16.306 125.678,16.172 126.795,16.017 L126.800,15.984 L133.362,15.015 L133.356,15.053 C134.929,14.788 136.483,14.519 136.465,14.502 L136.538,15.630 C136.538,15.630 134.790,15.630 133.697,17.524 ZM115.882,23.214 C115.047,21.509 115.447,20.058 114.612,19.115 C113.778,18.171 112.943,18.099 112.036,18.824 C111.779,19.030 111.452,19.529 111.116,20.140 L108.441,38.647 C110.016,36.009 112.648,34.873 116.213,36.271 L113.667,40.593 C110.618,38.529 108.675,41.004 107.708,43.687 C107.082,47.648 106.150,51.603 111.837,52.204 C111.951,52.215 112.189,52.118 112.189,52.238 L112.187,53.781 C107.143,54.113 102.626,54.730 97.655,55.596 C97.655,55.596 98.469,54.002 99.314,51.645 C99.783,50.336 100.402,47.876 100.861,45.947 L103.865,25.695 C103.779,24.247 103.635,22.569 103.409,22.029 C102.984,21.018 101.345,20.552 101.345,20.552 C101.345,20.552 101.931,19.095 101.891,19.015 L104.919,18.581 L104.921,18.572 L109.538,17.891 L109.569,17.809 L122.630,16.285 C122.754,16.270 118.385,24.666 118.022,24.956 C117.659,25.246 116.717,24.919 115.882,23.214 ZM91.186,29.166 C89.824,28.711 88.862,28.165 88.228,27.716 L86.716,38.078 L92.858,34.284 C92.289,36.822 92.301,38.671 93.163,41.133 C91.164,40.126 88.443,39.703 86.338,40.662 L84.703,51.873 C85.506,53.066 86.571,54.329 87.572,54.504 C89.533,54.847 90.466,52.935 91.887,49.111 C93.309,45.286 93.946,43.324 95.221,42.834 C96.497,42.343 98.458,42.491 98.458,42.491 C98.458,42.491 96.104,47.296 96.104,50.876 C96.104,54.455 96.774,55.571 96.774,55.571 C96.774,55.571 92.769,55.975 88.848,56.269 C84.924,56.564 75.509,58.280 75.509,58.280 C75.509,58.280 76.000,57.299 77.373,54.602 C77.598,54.160 77.822,53.722 78.039,53.301 L82.025,26.186 C81.949,25.475 81.852,24.879 81.734,24.597 C81.309,23.585 79.670,23.119 79.670,23.119 C79.670,23.119 80.257,21.663 80.215,21.581 L82.756,21.219 L82.768,21.137 L89.330,20.168 L88.388,26.619 C96.028,24.634 95.989,13.806 88.728,9.307 C66.402,-4.529 38.462,33.191 44.065,60.989 C44.268,61.759 44.507,62.495 44.775,63.032 C45.682,64.845 46.475,65.977 46.475,65.977 C35.369,68.490 25.247,56.313 26.331,47.037 C24.036,50.137 21.297,54.435 20.786,61.084 C20.181,68.937 24.496,70.232 24.496,70.232 L22.770,70.404 C22.770,70.404 14.002,70.482 13.705,65.431 C11.006,69.984 3.056,69.886 3.056,69.886 C3.056,69.886 9.031,67.894 9.764,57.307 C10.493,46.783 11.624,36.770 3.056,29.635 C3.056,29.635 8.506,30.578 12.804,28.063 C17.101,25.548 17.101,25.128 19.303,24.813 C21.504,24.499 22.553,26.281 22.553,26.281 C22.553,26.281 17.627,25.337 17.101,36.344 C16.739,43.970 16.527,52.351 15.628,58.453 C18.057,52.865 22.135,46.245 24.065,42.446 C26.825,37.009 26.552,34.221 25.927,33.178 C25.302,32.136 24.119,31.719 24.328,31.163 C24.497,30.716 34.969,28.198 38.204,27.459 C38.204,27.459 32.088,31.764 31.861,42.980 C31.693,51.268 35.919,55.350 38.136,56.915 C34.876,27.931 63.345,-9.741 90.483,6.664 C104.831,15.340 99.589,31.966 91.186,29.166 ZM13.346,43.568 L14.150,42.648 L13.229,41.844 L12.426,42.765 L13.346,43.568 ZM9.869,33.157 C11.761,35.364 12.708,38.210 13.035,41.068 C13.035,41.068 14.158,33.199 14.950,31.076 C14.115,32.633 11.530,33.371 9.869,33.157 ZM54.756,38.407 L55.759,31.579 C55.672,30.303 55.538,28.997 55.344,28.534 C54.918,27.522 53.280,27.057 53.280,27.057 C53.280,27.057 53.867,25.600 53.826,25.519 L56.712,25.107 L56.715,25.080 L63.277,24.111 L60.951,40.236 C63.729,41.770 66.238,44.232 67.751,47.491 L71.380,22.807 L77.941,21.838 L72.633,58.642 L65.983,59.523 L67.101,51.913 C66.851,50.530 66.449,49.134 65.803,48.034 C64.628,46.028 62.670,44.509 60.468,43.590 L57.968,60.915 L53.928,61.450 L53.924,61.475 L47.805,62.415 L48.009,61.418 C48.009,61.418 49.967,61.135 50.701,59.270 C51.116,58.218 52.095,54.380 52.872,51.229 L54.131,42.662 C50.534,43.127 47.612,45.471 47.719,50.179 C45.843,46.625 46.530,43.259 47.716,41.500 C49.226,39.259 51.850,38.278 54.756,38.407 ZM122.017,39.826 C119.222,42.845 117.092,51.769 117.687,56.163 C119.270,67.844 133.391,71.696 142.946,62.141 C132.609,75.340 114.497,70.112 113.070,56.008 C112.525,50.596 115.184,39.308 122.017,39.826 Z"/>
<path fill-rule="evenodd"  fill="rgb(38, 38, 38)"
 d="M110.166,62.745 L109.895,63.853 C109.867,63.965 109.810,64.032 109.720,64.051 C109.487,64.105 109.056,64.164 108.431,64.229 C108.327,64.243 108.290,64.194 108.318,64.082 C108.352,63.912 108.433,63.612 108.562,63.183 C108.608,63.025 108.616,62.874 108.586,62.730 C108.556,62.586 108.487,62.522 108.377,62.537 C108.068,62.580 107.854,62.848 107.733,63.341 L107.590,63.922 C107.534,64.154 107.662,64.454 107.977,64.822 C108.274,65.163 108.572,65.504 108.869,65.845 C109.167,66.281 109.269,66.689 109.175,67.069 L108.985,67.842 C108.825,68.499 108.519,69.042 108.071,69.472 C107.623,69.902 107.075,70.161 106.427,70.250 C105.868,70.328 105.441,70.188 105.147,69.832 C104.837,69.449 104.775,68.906 104.964,68.201 C104.992,68.082 105.044,67.888 105.118,67.618 C105.164,67.459 105.227,67.375 105.306,67.365 C105.385,67.354 105.609,67.315 105.980,67.250 C106.351,67.184 106.576,67.147 106.655,67.136 C106.733,67.125 106.749,67.216 106.701,67.410 L106.567,67.959 C106.436,68.496 106.523,68.744 106.830,68.702 C107.075,68.668 107.250,68.467 107.356,68.099 L107.534,67.469 C107.587,67.281 107.452,67.022 107.130,66.691 C106.588,66.131 106.292,65.815 106.240,65.743 C105.936,65.337 105.830,64.944 105.924,64.564 L106.157,63.612 C106.324,62.933 106.626,62.368 107.065,61.917 C107.536,61.427 108.121,61.127 108.819,61.016 C109.388,60.931 109.796,61.054 110.042,61.388 C110.270,61.703 110.311,62.155 110.166,62.745 ZM97.948,64.826 C97.209,65.974 96.843,66.567 96.848,66.610 C96.980,67.811 97.176,69.360 97.433,71.263 C97.450,71.383 97.414,71.454 97.325,71.473 C97.325,71.473 96.783,71.548 95.698,71.697 C95.634,71.706 95.601,71.661 95.594,71.560 C95.576,71.232 95.552,70.456 95.522,69.233 C95.520,69.118 95.512,69.057 95.498,69.053 C95.490,69.053 95.467,69.118 95.428,69.246 C95.265,69.784 95.064,70.589 94.825,71.655 C94.799,71.768 94.741,71.829 94.654,71.841 C93.879,71.948 93.490,72.001 93.490,72.001 C93.388,72.016 93.353,71.952 93.388,71.810 L95.522,63.108 C95.548,63.004 95.601,62.946 95.679,62.936 C95.996,62.885 96.422,62.826 96.957,62.759 C97.034,62.756 97.061,62.803 97.037,62.900 C96.667,64.257 96.455,65.054 96.404,65.292 C96.392,65.344 96.398,65.368 96.421,65.365 C96.447,65.354 96.474,65.318 96.505,65.256 C96.739,64.771 97.144,63.956 97.722,62.807 C97.781,62.696 97.845,62.637 97.916,62.627 C98.095,62.610 98.352,62.574 98.686,62.521 C99.080,62.467 99.285,62.438 99.300,62.436 C99.411,62.421 99.453,62.466 99.428,62.570 C99.423,62.593 99.413,62.616 99.400,62.639 C99.155,62.982 98.672,63.711 97.948,64.826 ZM86.288,72.984 C86.285,73.027 86.244,73.055 86.165,73.065 C86.053,73.080 85.849,73.109 85.550,73.150 C85.252,73.184 84.992,73.216 84.771,73.247 C84.700,73.257 84.668,73.026 84.677,72.556 C84.687,72.202 84.706,71.897 84.730,71.640 C84.736,71.589 84.699,71.569 84.619,71.580 C84.311,71.623 84.158,71.644 84.158,71.644 C84.102,71.651 84.060,71.682 84.031,71.738 C83.849,72.202 83.625,72.739 83.361,73.353 C83.312,73.426 83.270,73.465 83.230,73.470 L81.773,73.671 C81.647,73.689 81.607,73.650 81.653,73.558 C82.294,71.994 82.939,70.427 83.583,68.856 C84.834,65.833 85.513,64.312 85.618,64.290 C86.048,64.210 86.475,64.150 86.895,64.114 C86.988,64.108 86.918,65.546 86.684,68.428 C86.556,69.946 86.425,71.465 86.288,72.984 ZM85.077,68.920 C85.038,68.926 84.945,69.115 84.800,69.488 C84.710,69.732 84.619,69.979 84.527,70.230 C84.514,70.253 84.547,70.264 84.628,70.264 C84.707,70.264 84.784,70.255 84.857,70.238 C84.938,70.219 84.981,70.196 84.988,70.165 C85.079,69.331 85.108,68.916 85.077,68.920 ZM76.340,66.970 C76.317,67.063 76.263,67.116 76.175,67.129 C75.864,67.171 75.413,67.233 74.825,67.314 C74.708,67.331 74.639,67.380 74.618,67.462 C74.610,67.499 74.541,67.765 74.411,68.258 C74.301,68.677 74.224,68.992 74.181,69.199 C74.162,69.282 74.196,69.323 74.286,69.326 C74.445,69.325 74.808,69.279 75.376,69.186 C75.476,69.172 75.521,69.210 75.506,69.298 C75.481,69.431 75.416,69.682 75.311,70.050 C75.191,70.478 75.122,70.729 75.103,70.804 C75.077,70.908 75.021,70.966 74.935,70.978 C74.935,70.978 74.579,71.028 73.870,71.125 C73.790,71.137 73.729,71.199 73.687,71.311 C73.571,71.626 73.419,72.215 73.231,73.076 C73.208,73.171 73.264,73.218 73.403,73.213 C73.711,73.170 74.145,73.111 74.705,73.033 C74.831,73.016 74.882,73.056 74.858,73.153 C74.710,73.757 74.604,74.208 74.539,74.506 C74.516,74.596 74.441,74.653 74.314,74.678 C73.208,74.881 72.215,75.011 71.336,75.067 C71.251,75.071 71.224,75.006 71.259,74.872 L73.402,66.125 C73.422,66.044 73.476,65.996 73.563,65.984 C74.173,65.894 75.154,65.761 76.507,65.589 C76.634,65.572 76.685,65.608 76.664,65.698 C76.634,65.817 76.585,66.019 76.516,66.302 C76.422,66.654 76.364,66.877 76.340,66.970 ZM65.277,70.315 C65.187,70.681 64.996,71.009 64.703,71.301 C64.499,71.510 64.291,71.661 64.077,71.755 C64.008,71.787 63.971,71.813 63.965,71.836 C63.962,71.850 63.989,71.865 64.047,71.879 C64.186,71.903 64.321,71.974 64.452,72.094 C64.748,72.347 64.751,73.063 64.462,74.241 C64.277,74.996 64.185,75.530 64.183,75.847 C64.183,76.006 64.121,76.097 64.002,76.121 C63.848,76.157 63.387,76.216 62.620,76.301 C62.533,76.312 62.506,76.219 62.539,76.020 C62.624,75.517 62.744,74.957 62.895,74.337 C63.171,73.209 63.100,72.675 62.683,72.732 C62.630,72.724 62.583,72.732 62.540,72.752 C62.479,72.782 62.432,72.867 62.397,73.010 C62.110,74.182 61.852,75.213 61.627,76.103 C61.580,76.296 61.512,76.403 61.423,76.422 C60.986,76.526 60.578,76.590 60.198,76.613 C60.106,76.618 60.085,76.517 60.137,76.307 L62.247,67.696 C62.281,67.562 62.367,67.484 62.512,67.465 C62.947,67.404 63.544,67.319 64.300,67.208 C64.793,67.139 65.186,67.179 65.479,67.326 C65.799,67.492 65.916,67.750 65.829,68.110 L65.277,70.315 ZM63.806,68.618 C63.723,68.643 63.662,68.658 63.622,68.664 C63.552,68.673 63.500,68.743 63.469,68.869 C63.469,68.869 63.309,69.523 62.988,70.831 C62.938,71.038 62.967,71.138 63.075,71.131 C63.113,71.133 63.160,71.126 63.216,71.112 C63.391,71.087 63.529,70.989 63.633,70.816 C63.786,70.564 63.960,70.042 64.153,69.251 C64.274,68.758 64.158,68.547 63.806,68.618 ZM54.815,69.943 C54.460,69.993 53.974,70.063 53.356,70.155 C53.260,70.176 53.200,70.234 53.176,70.332 L52.693,72.302 C52.665,72.415 52.691,72.465 52.770,72.454 C52.942,72.438 53.341,72.375 53.971,72.267 C54.082,72.251 54.129,72.292 54.113,72.388 C54.070,72.682 53.951,73.171 53.753,73.855 C53.734,73.930 53.686,73.973 53.608,73.983 C53.321,74.016 52.913,74.072 52.386,74.152 C52.299,74.171 52.240,74.226 52.210,74.317 C52.130,74.580 51.999,75.099 51.817,75.875 C51.548,76.973 51.408,77.543 51.397,77.588 C51.373,77.685 51.305,77.746 51.194,77.768 C50.639,77.895 50.137,77.968 49.686,77.986 C49.586,77.993 49.547,77.947 49.571,77.851 C49.571,77.851 50.281,74.954 51.702,69.161 C51.730,69.049 51.806,68.984 51.932,68.966 C52.297,68.909 52.870,68.830 53.649,68.730 C54.673,68.596 55.185,68.529 55.185,68.529 C55.303,68.512 55.350,68.553 55.326,68.650 C55.204,69.150 55.107,69.532 55.035,69.794 C55.018,69.861 54.945,69.911 54.815,69.943 Z"/>
<path fill-rule="evenodd"  fill="rgb(38, 38, 38)"
 d="M46.038,70.974 L1.607,76.310 C1.607,76.310 46.717,68.937 46.814,69.131 L46.038,70.974 ZM45.456,73.787 L1.025,79.123 C1.025,79.123 46.135,71.750 46.232,71.944 L45.456,73.787 ZM44.680,76.795 L0.249,82.130 C0.249,82.130 45.358,74.758 45.456,74.951 L44.680,76.795 Z"/>
<path fill-rule="evenodd"  fill="rgb(38, 38, 38)"
 d="M40.435,13.301 L40.434,13.302 C40.189,15.098 39.498,16.676 38.580,17.777 C37.541,19.022 36.192,19.697 34.783,19.504 L34.782,19.504 C33.369,19.313 32.250,18.300 31.580,16.820 C30.991,15.517 30.748,13.813 30.992,12.020 L30.997,11.983 L30.997,11.983 C31.246,10.202 31.933,8.638 32.845,7.545 C33.885,6.299 35.234,5.625 36.644,5.816 C38.056,6.009 39.177,7.021 39.846,8.502 C40.436,9.805 40.679,11.508 40.435,13.301 ZM37.728,9.456 C37.386,8.699 36.894,8.193 36.335,8.117 L36.334,8.117 C35.772,8.040 35.161,8.397 34.628,9.036 C33.973,9.820 33.476,10.980 33.292,12.329 L33.287,12.365 L33.287,12.366 C33.111,13.703 33.281,14.941 33.698,15.866 C34.041,16.622 34.532,17.129 35.091,17.205 C35.654,17.282 36.265,16.924 36.798,16.286 C37.453,15.502 37.950,14.343 38.134,12.994 L38.134,12.993 C38.317,11.641 38.150,10.389 37.728,9.456 ZM32.493,6.338 C32.040,4.889 30.877,2.679 27.996,2.734 C26.916,2.755 25.787,3.103 24.651,3.631 C23.444,4.192 22.245,4.946 21.086,5.732 L20.412,6.196 C19.679,6.701 18.860,7.263 18.036,7.776 C16.656,8.635 15.162,9.433 13.669,9.890 L11.928,21.626 C11.530,22.619 9.576,22.589 9.628,21.291 L11.260,10.285 C9.370,10.288 7.587,9.456 6.165,7.174 L8.139,5.946 C10.184,9.232 13.824,7.661 16.808,5.804 C17.653,5.277 18.412,4.755 19.094,4.286 C19.242,4.184 19.383,4.087 19.787,3.813 C21.048,2.959 22.353,2.137 23.677,1.522 C25.074,0.873 26.508,0.444 27.960,0.416 C31.836,0.342 33.624,2.871 34.433,4.887 C33.728,5.190 33.070,5.686 32.493,6.338 ZM18.617,11.348 L17.585,16.685 L21.199,11.776 L22.315,10.363 L23.139,11.967 L25.031,15.650 L27.711,6.597 C28.470,4.962 30.297,5.922 29.939,7.251 L27.221,16.436 C26.818,17.797 26.523,20.476 24.855,20.476 L21.900,14.625 C19.413,17.768 18.315,20.582 14.532,21.549 L16.325,10.976 C17.147,8.863 18.927,10.068 18.617,11.348 Z"/>
</svg>