<svg 
 xmlns="http://www.w3.org/2000/svg"
 xmlns:xlink="http://www.w3.org/1999/xlink"
 width="25px" height="26px">
<path fill-rule="evenodd"  fill="rgb(248, 248, 248)"
 d="M24.850,5.099 L20.374,13.212 C19.949,13.987 19.124,14.500 18.187,14.500 L8.875,14.500 L7.499,17.000 L22.500,17.000 L22.500,19.500 L7.499,19.500 C5.600,19.500 4.400,17.462 5.312,15.787 L7.000,12.737 L2.499,3.250 L-0.001,3.250 L-0.001,0.750 L4.087,0.750 L5.262,3.250 L23.762,3.250 C24.712,3.250 25.312,4.275 24.850,5.099 ZM6.450,5.750 L9.412,12.000 L18.187,12.000 L21.637,5.750 L6.450,5.750 ZM7.499,20.750 C8.875,20.750 9.999,21.875 9.999,23.250 C9.999,24.625 8.875,25.750 7.499,25.750 C6.125,25.750 5.012,24.625 5.012,23.250 C5.012,21.875 6.125,20.750 7.499,20.750 ZM20.000,20.750 C21.374,20.750 22.500,21.875 22.500,23.250 C22.500,24.625 21.374,25.750 20.000,25.750 C18.624,25.750 17.512,24.625 17.512,23.250 C17.512,21.875 18.624,20.750 20.000,20.750 Z"/>
</svg>