<svg 
 xmlns="http://www.w3.org/2000/svg"
 xmlns:xlink="http://www.w3.org/1999/xlink"
 width="22px" height="22px">
<path fill-rule="evenodd"  fill="rgb(248, 248, 248)"
 d="M14.637,13.750 L15.625,13.750 L21.862,20.000 L20.000,21.862 L13.750,15.625 L13.750,14.637 L13.412,14.287 C11.987,15.512 10.137,16.250 8.124,16.250 C3.637,16.250 -0.001,12.612 -0.001,8.125 C-0.001,3.637 3.637,-0.000 8.124,-0.000 C12.612,-0.000 16.250,3.637 16.250,8.125 C16.250,10.137 15.512,11.987 14.287,13.412 L14.637,13.750 ZM8.124,2.499 C5.012,2.499 2.499,5.012 2.499,8.125 C2.499,11.237 5.012,13.750 8.124,13.750 C11.237,13.750 13.750,11.237 13.750,8.125 C13.750,5.012 11.237,2.499 8.124,2.499 Z"/>
</svg>