<svg 
 xmlns="http://www.w3.org/2000/svg"
 xmlns:xlink="http://www.w3.org/1999/xlink"
 width="28px" height="28px">
<path fill-rule="evenodd"  fill="rgb(248, 248, 248)"
 d="M13.749,27.750 C6.298,27.750 0.250,21.701 0.250,14.250 C0.250,6.798 6.298,0.750 13.749,0.750 C21.201,0.750 27.249,6.798 27.249,14.250 C27.249,21.701 21.201,27.750 13.749,27.750 ZM13.749,25.050 C16.261,25.050 18.569,24.186 20.405,22.727 C19.838,21.513 16.288,20.325 13.749,20.325 C11.211,20.325 7.674,21.513 7.094,22.727 C8.930,24.186 11.238,25.050 13.749,25.050 ZM13.749,3.450 C7.796,3.450 2.949,8.296 2.949,14.250 C2.949,16.707 3.786,18.961 5.164,20.770 C7.094,18.421 11.779,17.625 13.749,17.625 C15.720,17.625 20.405,18.421 22.335,20.770 C23.713,18.961 24.550,16.707 24.550,14.250 C24.550,8.296 19.703,3.450 13.749,3.450 ZM13.749,15.600 C11.130,15.600 9.025,13.494 9.025,10.874 C9.025,8.256 11.130,6.150 13.749,6.150 C16.369,6.150 18.474,8.256 18.474,10.874 C18.474,13.494 16.369,15.600 13.749,15.600 ZM13.749,8.850 C12.629,8.850 11.724,9.754 11.724,10.874 C11.724,11.995 12.629,12.900 13.749,12.900 C14.870,12.900 15.775,11.995 15.775,10.874 C15.775,9.754 14.870,8.850 13.749,8.850 Z"/>
</svg>